
<svg xmlns="http://www.w3.org/2000/svg" viewBox="0 0 224 180"><defs><style>.a{fill:#e2e2e2;}.b{fill:#b7b7b7;}.c{fill:#c7c7c7;}</style></defs><title>imageCaption</title><path class="a" d="M48 57.5h54v62H48z"/><g id="blimpIcon"><g id="Layer_1"><g id="Group"><g id="blimpIcon"><g id="Layer_1"><g id="Group" stroke="#B5B5B5" fill="#B5B5B5"><path d="M96.966 68.427c.213.355.213.814 0 1.17-1.368 2.307-5.027 2.617-7.605 2.558-2.69-.06-5.012-.68-5.838-.976-1.21-.445-2.492-1.17-3.432-2.087-.086-.074-.086-.192 0-.266.94-.918 2.207-1.554 3.432-1.983.826-.296 3.147-.917 5.84-.976 2.577-.06 6.236.25 7.604 2.56z" id="Shape" stroke-width=".86"/><path d="M88.545 71.7c-.507-.022-.995-.043-1.466-.084v1.8h3.6v-1.76c-.742.063-1.466.063-2.135.043z" id="Shape" stroke-width=".86"/><path d="M81.895 70.4l.16 1.8 1.048-.03c.64-.022 1.22-.355 1.492-.844M81.895 67.7l.16-1.8 1.048.03c.64.022 1.22.355 1.492.844" id="Shape" stroke-width=".688"/></g></g></g></g></g></g><path class="b" d="M108 51.5v86H42v-86h66m4-4H38v94h74v-94z"/><path class="c" d="M122 47.5h64v4h-64zM122 57.5h64v4h-64zM122 67.5h64v4h-64zM122 77.5h64v4h-64zM122 87.5h64v4h-64zM122 97.5h64v4h-64zM122 107.5h64v4h-64zM122 117.5h64v4h-64zM122 127.5h64v4h-64zM122 137.5h44v4h-44z"/><path class="b" d="M48 119.5h54v12H48zM72 85.5h6v34h-6z"/><path class="b" d="M68 89.5l7-8 7 8H68"/><path class="b" d="M65 97.5l10-11 10 11H65"/><path class="b" d="M62 105.5l13-14 13 14H62"/><path class="b" d="M59 113.5l16-17 16 17H59"/></svg>